<?xml version="1.0" encoding="UTF-8" standalone="no"?><svg xmlns="http://www.w3.org/2000/svg" xmlns:xlink= "http://www.w3.org/1999/xlink" width="600" height="390" aria-label="A chart." style="overflow: hidden;"><defs id="_ABSTRACT_RENDERER_ID_297"><clipPath id="_ABSTRACT_RENDERER_ID_298"><rect x="115" y="75" width="371" height="241"></rect></clipPath></defs><rect x="0" y="0" width="600" height="390" stroke="none" stroke-width="0" fill="#ffffff"></rect><g><text text-anchor="start" x="115" y="52.05" font-family="Arial" font-size="13" font-weight="bold" stroke="none" stroke-width="0" fill="#000000">Euclidean vs. Proposed</text><rect x="115" y="41" width="371" height="13" stroke="none" stroke-width="0" fill-opacity="0" fill="#ffffff"></rect></g><g><rect x="499" y="75" width="88" height="34" stroke="none" stroke-width="0" fill-opacity="0" fill="#ffffff"></rect><g><rect x="499" y="75" width="88" height="13" stroke="none" stroke-width="0" fill-opacity="0" fill="#ffffff"></rect><g><text text-anchor="start" x="530" y="86.05" font-family="Arial" font-size="13" stroke="none" stroke-width="0" fill="#222222">Proposed</text></g><path d="M499,81.5L525,81.5" stroke="#3366cc" stroke-width="3" fill-opacity="1" fill="none"></path><circle cx="512" cy="81.5" r="4.5" stroke="none" stroke-width="0" fill="#3366cc"></circle></g><g><rect x="499" y="96" width="88" height="13" stroke="none" stroke-width="0" fill-opacity="0" fill="#ffffff"></rect><g><text text-anchor="start" x="530" y="107.05" font-family="Arial" font-size="13" stroke="none" stroke-width="0" fill="#222222">Euclidean</text></g><path d="M499,102.5L525,102.5" stroke="#dc3912" stroke-width="3" fill-opacity="1" fill="none"></path><circle cx="512" cy="102.5" r="4.5" stroke="none" stroke-width="0" fill="#dc3912"></circle></g></g><g><rect x="115" y="75" width="371" height="241" stroke="none" stroke-width="0" fill-opacity="0" fill="#ffffff"></rect><g clip-path="url(https://www.rapidtables.com/tools/line-graph.html#_ABSTRACT_RENDERER_ID_298)"><g><rect x="166" y="75" width="1" height="241" stroke="none" stroke-width="0" fill="#cccccc"></rect><rect x="230" y="75" width="1" height="241" stroke="none" stroke-width="0" fill="#cccccc"></rect><rect x="294" y="75" width="1" height="241" stroke="none" stroke-width="0" fill="#cccccc"></rect><rect x="357" y="75" width="1" height="241" stroke="none" stroke-width="0" fill="#cccccc"></rect><rect x="421" y="75" width="1" height="241" stroke="none" stroke-width="0" fill="#cccccc"></rect><rect x="485" y="75" width="1" height="241" stroke="none" stroke-width="0" fill="#cccccc"></rect><rect x="102" y="75" width="1" height="241" stroke="none" stroke-width="0" fill="#ebebeb"></rect><rect x="134" y="75" width="1" height="241" stroke="none" stroke-width="0" fill="#ebebeb"></rect><rect x="198" y="75" width="1" height="241" stroke="none" stroke-width="0" fill="#ebebeb"></rect><rect x="262" y="75" width="1" height="241" stroke="none" stroke-width="0" fill="#ebebeb"></rect><rect x="326" y="75" width="1" height="241" stroke="none" stroke-width="0" fill="#ebebeb"></rect><rect x="389" y="75" width="1" height="241" stroke="none" stroke-width="0" fill="#ebebeb"></rect><rect x="453" y="75" width="1" height="241" stroke="none" stroke-width="0" fill="#ebebeb"></rect><rect x="115" y="315" width="371" height="1" stroke="none" stroke-width="0" fill="#cccccc"></rect><rect x="115" y="267" width="371" height="1" stroke="none" stroke-width="0" fill="#cccccc"></rect><rect x="115" y="219" width="371" height="1" stroke="none" stroke-width="0" fill="#cccccc"></rect><rect x="115" y="171" width="371" height="1" stroke="none" stroke-width="0" fill="#cccccc"></rect><rect x="115" y="123" width="371" height="1" stroke="none" stroke-width="0" fill="#cccccc"></rect><rect x="115" y="75" width="371" height="1" stroke="none" stroke-width="0" fill="#cccccc"></rect><rect x="115" y="291" width="371" height="1" stroke="none" stroke-width="0" fill="#ebebeb"></rect><rect x="115" y="243" width="371" height="1" stroke="none" stroke-width="0" fill="#ebebeb"></rect><rect x="115" y="195" width="371" height="1" stroke="none" stroke-width="0" fill="#ebebeb"></rect><rect x="115" y="147" width="371" height="1" stroke="none" stroke-width="0" fill="#ebebeb"></rect><rect x="115" y="99" width="371" height="1" stroke="none" stroke-width="0" fill="#ebebeb"></rect></g><g><rect x="115" y="315" width="371" height="1" stroke="none" stroke-width="0" fill="#333333"></rect></g><g><path d="M115.5,123.5L166.5344827586207,195.5L230.32758620689657,111.5L294.12068965517244,178.412L357.91379310344826,216.548L421.7068965517241,235.388L485.5,235.34" stroke="#3366cc" stroke-width="3" fill-opacity="1" fill="none"></path><path d="M115.5,99.5L166.5344827586207,104.29999999999998L230.32758620689657,106.69999999999999L294.12068965517244,113.06L357.91379310344826,161.612L421.7068965517241,157.1L485.5,192.572" stroke="#dc3912" stroke-width="3" fill-opacity="1" fill="none"></path></g></g><g><circle cx="115.5" cy="123.5" r="4.5" stroke="none" stroke-width="0" fill="#3366cc"></circle><circle cx="166.5344827586207" cy="195.5" r="4.5" stroke="none" stroke-width="0" fill="#3366cc"></circle><circle cx="230.32758620689657" cy="111.5" r="4.5" stroke="none" stroke-width="0" fill="#3366cc"></circle><circle cx="294.12068965517244" cy="178.412" r="4.5" stroke="none" stroke-width="0" fill="#3366cc"></circle><circle cx="357.91379310344826" cy="216.548" r="4.5" stroke="none" stroke-width="0" fill="#3366cc"></circle><circle cx="421.7068965517241" cy="235.388" r="4.5" stroke="none" stroke-width="0" fill="#3366cc"></circle><circle cx="485.5" cy="235.34" r="4.5" stroke="none" stroke-width="0" fill="#3366cc"></circle><circle cx="115.5" cy="99.5" r="4.5" stroke="none" stroke-width="0" fill="#dc3912"></circle><circle cx="166.5344827586207" cy="104.29999999999998" r="4.5" stroke="none" stroke-width="0" fill="#dc3912"></circle><circle cx="230.32758620689657" cy="106.69999999999999" r="4.5" stroke="none" stroke-width="0" fill="#dc3912"></circle><circle cx="294.12068965517244" cy="113.06" r="4.5" stroke="none" stroke-width="0" fill="#dc3912"></circle><circle cx="357.91379310344826" cy="161.612" r="4.5" stroke="none" stroke-width="0" fill="#dc3912"></circle><circle cx="421.7068965517241" cy="157.1" r="4.5" stroke="none" stroke-width="0" fill="#dc3912"></circle><circle cx="485.5" cy="192.572" r="4.5" stroke="none" stroke-width="0" fill="#dc3912"></circle></g><g><g><text text-anchor="middle" x="166.5345" y="335.05" font-family="Arial" font-size="13" stroke="none" stroke-width="0" fill="#444444">5</text></g><g><text text-anchor="middle" x="230.3276" y="335.05" font-family="Arial" font-size="13" stroke="none" stroke-width="0" fill="#444444">10</text></g><g><text text-anchor="middle" x="294.1207" y="335.05" font-family="Arial" font-size="13" stroke="none" stroke-width="0" fill="#444444">15</text></g><g><text text-anchor="middle" x="357.9138" y="335.05" font-family="Arial" font-size="13" stroke="none" stroke-width="0" fill="#444444">20</text></g><g><text text-anchor="middle" x="421.7069" y="335.05" font-family="Arial" font-size="13" stroke="none" stroke-width="0" fill="#444444">25</text></g><g><text text-anchor="middle" x="485.5" y="335.05" font-family="Arial" font-size="13" stroke="none" stroke-width="0" fill="#444444">30</text></g><g><text text-anchor="end" x="102" y="320.05" font-family="Arial" font-size="13" stroke="none" stroke-width="0" fill="#444444">0</text></g><g><text text-anchor="end" x="102" y="272.05" font-family="Arial" font-size="13" stroke="none" stroke-width="0" fill="#444444">2,000</text></g><g><text text-anchor="end" x="102" y="224.05" font-family="Arial" font-size="13" stroke="none" stroke-width="0" fill="#444444">4,000</text></g><g><text text-anchor="end" x="102" y="176.05" font-family="Arial" font-size="13" stroke="none" stroke-width="0" fill="#444444">6,000</text></g><g><text text-anchor="end" x="102" y="128.05" font-family="Arial" font-size="13" stroke="none" stroke-width="0" fill="#444444">8,000</text></g><g><text text-anchor="end" x="102" y="80.05" font-family="Arial" font-size="13" stroke="none" stroke-width="0" fill="#444444">10,000</text></g></g></g><g><g><text text-anchor="middle" x="300.5" y="368.05" font-family="Arial" font-size="13" font-style="italic" stroke="none" stroke-width="0" fill="#222222">Episode Number</text><rect x="115" y="357" width="371" height="13" stroke="none" stroke-width="0" fill-opacity="0" fill="#ffffff"></rect></g><g><text text-anchor="middle" x="35.55" y="195.5" font-family="Arial" font-size="13" font-style="italic" transform="rotate(-90 35.55 195.5)" stroke="none" stroke-width="0" fill="#222222">Number of Steps</text><path d="M24.499999999999996,316L24.50000000000001,75L37.50000000000001,75L37.49999999999999,316Z" stroke="none" stroke-width="0" fill-opacity="0" fill="#ffffff"></path></g></g><g></g></svg>